<svg xmlns="http://www.w3.org/2000/svg" xmlns:xlink="http://www.w3.org/1999/xlink" width="34" height="38" viewBox="0 0 34 38"><defs><path id="cmwoa" d="M778.39 62.44s7.98 5.87 0 13.81"/><path id="cmwob" d="M779.92 57.6s13.7 9.69 0 22.8"/><path id="cmwoc" d="M772.78 51.9V86.1c0 1.05-.9 1.9-2.01 1.9H754c-1.11 0-2.01-.85-2.01-1.9V51.91c0-1.05.9-1.9 2.01-1.9h16.76c1.1 0 2.01.85 2.01 1.9zm-19.4 34.19c0 .3.28.55.63.55h16.76c.35 0 .64-.25.64-.55v-2.87h-18.04zm0-30.43v26.2h18.03v-26.2zm0-3.75v2.4h18.03v-2.4c0-.3-.3-.55-.64-.55H754c-.35 0-.64.24-.64.55zm7.88 32.98c0-.6.5-1.1 1.13-1.1.62 0 1.13.5 1.13 1.1 0 .61-.5 1.11-1.13 1.11-.62 0-1.13-.5-1.13-1.1z"/><clipPath id="cmwod"><use fill="#fff" xlink:href="#cmwoa"/></clipPath><clipPath id="cmwoe"><use fill="#fff" xlink:href="#cmwob"/></clipPath></defs><g><g transform="translate(-752 -50)"><use xlink:href="#cmwoc"/></g><g transform="translate(-752 -50)"><use fill="#fff" fill-opacity="0" stroke="#000" stroke-miterlimit="50" stroke-width="3.64" clip-path="url(&quot;#cmwod&quot;)" xlink:href="#cmwoa"/></g><g transform="translate(-752 -50)"><use fill="#fff" fill-opacity="0" stroke="#000" stroke-miterlimit="50" stroke-width="3.64" clip-path="url(&quot;#cmwoe&quot;)" xlink:href="#cmwob"/></g></g></svg>